<?xml version="1.0" encoding="UTF-8"?>
<svg xmlns="http://www.w3.org/2000/svg" width="40" height="40" viewBox="0 0 40 40" fill="none">
  <circle cx="20.5" cy="19.5" r="15.5" fill="white"></circle>
  <path d="M32.3747 7.62501C29.9272 5.17777 26.809 3.51123 23.4144 2.83613C20.0198 2.16104 16.5012 2.5077 13.3036 3.83229C10.106 5.15687 7.37298 7.39989 5.45013 10.2777C3.52729 13.1555 2.50098 16.5389 2.50098 20C2.50098 23.4611 3.52729 26.8445 5.45013 29.7223C7.37298 32.6001 10.106 34.8431 13.3036 36.1677C16.5012 37.4923 20.0198 37.839 23.4144 37.1639C26.809 36.4888 29.9272 34.8222 32.3747 32.375C33.9999 30.75 35.2891 28.8207 36.1687 26.6974C37.0483 24.5741 37.501 22.2983 37.501 20C37.501 17.7017 37.0483 15.426 36.1687 13.3026C35.2891 11.1793 33.9999 9.25006 32.3747 7.62501ZM26.2497 24.425C26.3746 24.5419 26.4742 24.6832 26.5422 24.8402C26.6103 24.9972 26.6454 25.1664 26.6454 25.3375C26.6454 25.5086 26.6103 25.6778 26.5422 25.8348C26.4742 25.9918 26.3746 26.1331 26.2497 26.25C26.1329 26.3659 25.9944 26.4575 25.8421 26.5197C25.6898 26.5819 25.5267 26.6135 25.3622 26.6125C25.0343 26.6111 24.72 26.4809 24.4872 26.25L19.9997 21.7625L15.5747 26.25C15.3419 26.4809 15.0276 26.6111 14.6997 26.6125C14.5352 26.6135 14.3721 26.5819 14.2198 26.5197C14.0675 26.4575 13.929 26.3659 13.8122 26.25C13.5794 26.0158 13.4487 25.699 13.4487 25.3688C13.4487 25.0385 13.5794 24.7217 13.8122 24.4875L18.2372 20L13.8122 15.575C13.6074 15.3359 13.5004 15.0283 13.5126 14.7137C13.5247 14.3991 13.6551 14.1007 13.8778 13.8781C14.1004 13.6554 14.3988 13.525 14.7134 13.5129C15.028 13.5007 15.3356 13.6077 15.5747 13.8125L19.9997 18.2375L24.4247 13.8125C24.5404 13.6927 24.6786 13.5968 24.8314 13.5304C24.9842 13.464 25.1486 13.4283 25.3151 13.4254C25.4817 13.4225 25.6472 13.4524 25.8022 13.5135C25.9572 13.5745 26.0986 13.6655 26.2185 13.7813C26.3383 13.897 26.4342 14.0352 26.5006 14.188C26.567 14.3407 26.6027 14.5051 26.6056 14.6717C26.6085 14.8382 26.5786 15.0037 26.5175 15.1587C26.4564 15.3137 26.3654 15.4552 26.2497 15.575L21.7622 20L26.2497 24.425Z" fill="#2598D0"></path>
</svg>
