<?xml version="1.0" encoding="UTF-8"?>
<svg xmlns="http://www.w3.org/2000/svg" width="36" height="36" viewBox="0 0 36 36" fill="none">
  <g clip-path="url(#clip0_1_3257)">
    <path fill-rule="evenodd" clip-rule="evenodd" d="M18 0C27.9411 0 36 8.05887 36 18C36 26.9843 29.4177 34.431 20.8125 35.7812V23.2031H25.0066L25.8047 18H20.8125V14.6235C20.8125 13.2 21.5098 11.8125 23.7458 11.8125H26.0156V7.38281C26.0156 7.38281 23.9557 7.03125 21.9863 7.03125C17.8748 7.03125 15.1875 9.52312 15.1875 14.0344V18H10.6172V23.2031H15.1875V35.7812C6.58234 34.431 0 26.9843 0 18C0 8.05887 8.05888 0 18 0Z" fill="#15191C"></path>
  </g>
  <defs>
    <clipPath id="clip0_1_3257">
      <rect width="36" height="36" fill="white"></rect>
    </clipPath>
  </defs>
</svg>
