<?xml version="1.0" encoding="UTF-8"?>
<svg xmlns="http://www.w3.org/2000/svg" width="15" height="16" viewBox="0 0 15 16" fill="none">
  <g id="Group">
    <g id="Vector">
      <mask id="path-1-outside-1_1_3303" maskUnits="userSpaceOnUse" x="0" y="0" width="15" height="16" fill="black">
        <rect fill="white" width="15" height="16"></rect>
        <path d="M7.83747 15C7.59207 15 7.34684 14.9865 7.10283 14.9596C6.87918 14.9362 6.65828 14.8979 6.44035 14.8514C6.39817 14.8424 6.35596 14.8329 6.31379 14.8229C5.02974 14.524 3.85726 13.8526 2.93695 12.8892C2.85137 12.7995 2.76759 12.7072 2.68566 12.6122C0.199632 9.69339 0.497979 5.26622 3.35206 2.72381C6.08446 0.289773 10.1974 0.451734 12.7387 3.0934C12.8245 3.18311 12.9082 3.27548 12.99 3.37048C14.0872 4.64823 14.6918 6.29086 14.6908 7.99132C14.6908 11.8621 11.6225 15 7.83747 15ZM3.24146 12.5388C3.27756 12.5771 3.31502 12.6138 3.3518 12.6509C3.39429 12.6937 3.43655 12.7367 3.47996 12.778C3.51811 12.8145 3.5574 12.8495 3.59646 12.885C3.64055 12.925 3.68441 12.9649 3.72964 13.0035C3.76939 13.0378 3.81028 13.0708 3.85095 13.1039C3.89664 13.1413 3.94232 13.1787 3.98938 13.2147C4.03096 13.2467 4.07322 13.2778 4.11571 13.3081C4.163 13.3427 4.21052 13.3782 4.25872 13.4105C4.30189 13.4404 4.34553 13.4693 4.38939 13.4981C4.43827 13.5301 4.48739 13.5616 4.53696 13.5915C4.58159 13.6188 4.62651 13.6456 4.67174 13.6719C4.72231 13.7013 4.77308 13.7301 4.82411 13.7581C4.8698 13.783 4.91549 13.8074 4.96118 13.8312C5.01326 13.8581 5.06581 13.884 5.11858 13.9095C5.16426 13.9317 5.21178 13.9539 5.25884 13.9749C5.31252 13.9983 5.36689 14.0216 5.42126 14.045C5.46855 14.0648 5.51561 14.0842 5.56335 14.1029C5.61864 14.1244 5.67461 14.1445 5.73057 14.1646C5.77832 14.1816 5.82606 14.1987 5.87449 14.2148C5.93138 14.2335 5.98871 14.2508 6.04628 14.2679C6.09448 14.2821 6.14223 14.2968 6.19066 14.3101C6.20916 14.315 6.22766 14.319 6.24617 14.3239C5.56998 13.6525 5.06818 12.8191 4.78619 11.8994C4.24398 12.0456 3.71908 12.2522 3.2209 12.5154C3.22844 12.5236 3.23484 12.5318 3.24146 12.5388ZM2.91296 12.1627C3.46171 11.8586 4.04361 11.6218 4.64661 11.4571C4.35101 10.4059 4.19584 9.31868 4.18539 8.22495H1.44636C1.49613 9.66725 2.01187 11.052 2.91296 12.1627ZM2.91296 3.81997C2.01193 4.93068 1.49619 6.31542 1.44636 7.7577H4.18539C4.19584 6.66396 4.35098 5.5767 4.64661 4.52552C4.04364 4.36081 3.46174 4.124 2.91296 3.81997ZM6.18929 1.67157C6.14314 1.68349 6.0954 1.6989 6.04788 1.71315C5.99008 1.73044 5.93206 1.74773 5.87495 1.76665C5.82675 1.78254 5.77923 1.79959 5.73172 1.81665C5.67552 1.83651 5.61932 1.85683 5.56381 1.87856C5.51629 1.89702 5.46946 1.91641 5.4224 1.93603C5.36781 1.95939 5.31321 1.98276 5.25907 2.00612C5.21247 2.02714 5.16609 2.04879 5.11995 2.07107C5.06672 2.09677 5.01372 2.12293 4.96004 2.15003C4.91435 2.17339 4.86866 2.19676 4.82297 2.22222C4.77134 2.25049 4.72017 2.27946 4.669 2.30936C4.62331 2.33529 4.57991 2.36193 4.53582 2.38903C4.48556 2.41987 4.43622 2.45164 4.38687 2.48411C4.34347 2.51238 4.30007 2.54112 4.25735 2.57055C4.20869 2.60419 4.16049 2.63924 4.11274 2.67428C4.07094 2.70489 4.02913 2.73549 3.98801 2.76773C3.94072 2.80418 3.89435 2.84179 3.84821 2.87964C3.80777 2.91258 3.76757 2.94528 3.72804 2.97916C3.68236 3.01794 3.63827 3.05836 3.59395 3.09854C3.55511 3.13382 3.51605 3.16863 3.47813 3.20461C3.4345 3.24619 3.39223 3.28941 3.34974 3.33217C3.31296 3.36931 3.2755 3.40599 3.23941 3.44407C3.23278 3.45131 3.22638 3.45879 3.21976 3.4658C3.71791 3.72915 4.24281 3.93582 4.78505 4.0821C5.06709 3.16238 5.56887 2.32907 6.24503 1.65755C6.22652 1.66246 6.20779 1.66643 6.18929 1.67157ZM7.60906 1.46832C6.63155 1.61036 5.77466 2.65372 5.23554 4.19447C6.01499 4.37296 6.81039 4.46872 7.60906 4.48019V1.46832ZM7.60906 4.94744C6.76182 4.93605 5.91815 4.83314 5.09208 4.64046C4.80524 5.65401 4.65392 6.70263 4.64227 7.7577H7.60906V4.94744ZM7.60906 8.22495H4.64227C4.65389 9.28002 4.80521 10.3286 5.09208 11.3422C5.91815 11.1495 6.76185 11.0466 7.60906 11.0352V8.22495ZM7.60906 11.5025C6.81037 11.5138 6.01499 11.6096 5.23554 11.7882C5.77466 13.3289 6.63155 14.3723 7.60906 14.5143V11.5025ZM12.762 12.1627C13.6631 11.052 14.1788 9.66722 14.2286 8.22495H11.4896C11.4792 9.31868 11.324 10.4059 11.0284 11.4571C11.6314 11.6219 12.2133 11.8587 12.762 12.1627ZM9.48389 14.3113C9.53186 14.2992 9.57961 14.2837 9.62712 14.2695C9.68492 14.2522 9.74294 14.2349 9.80005 14.216C9.84826 14.2001 9.89577 14.183 9.94329 14.166C9.99948 14.1461 10.0557 14.1258 10.1112 14.1041C10.1587 14.0856 10.2055 14.0662 10.2526 14.0466C10.3072 14.0232 10.3618 13.9999 10.4159 13.9765C10.4625 13.9555 10.5089 13.9339 10.5551 13.9116C10.6083 13.8859 10.6613 13.8597 10.715 13.8326C10.7607 13.8092 10.8063 13.7859 10.852 13.7604C10.9037 13.7322 10.9548 13.7032 11.006 13.6733C11.0517 13.6473 11.0951 13.6207 11.1392 13.5936C11.1894 13.5628 11.2388 13.531 11.2881 13.4985C11.3315 13.4703 11.3749 13.4415 11.4177 13.4121C11.4663 13.3784 11.5143 13.3436 11.562 13.3086C11.6041 13.278 11.6459 13.2472 11.6872 13.2151C11.7343 13.1789 11.7804 13.1413 11.8268 13.1035C11.867 13.0708 11.9074 13.0381 11.947 13.0039C11.9926 12.9652 12.0367 12.9248 12.0811 12.8846C12.1199 12.8493 12.159 12.8145 12.1969 12.7785C12.2405 12.7369 12.2828 12.6937 12.3253 12.6509C12.362 12.6138 12.3995 12.5771 12.4356 12.539C12.4422 12.5318 12.4486 12.5243 12.4552 12.5173C11.9571 12.254 11.4322 12.0473 10.89 11.901C10.6074 12.8208 10.1049 13.6541 9.42815 14.3253C9.44665 14.3204 9.46538 14.3164 9.48389 14.3113ZM8.06594 14.5143C9.04345 14.3723 9.90034 13.3289 10.4395 11.7882C9.66002 11.6097 8.86461 11.5139 8.06594 11.5025V14.5143ZM8.06594 11.0352C8.91318 11.0466 9.75685 11.1495 10.5829 11.3422C10.8698 10.3286 11.0211 9.28002 11.0327 8.22495H8.06594V11.0352ZM8.06594 7.7577H11.0327C11.0211 6.70263 10.8698 5.65401 10.5829 4.64046C9.75685 4.83311 8.91318 4.93602 8.06594 4.94744V7.7577ZM8.06594 1.46832V4.48019C8.86464 4.4688 9.66002 4.37305 10.4395 4.19447C9.90034 2.65372 9.04345 1.61036 8.06594 1.46832ZM12.4335 3.44384C12.3974 3.40576 12.3602 3.36908 12.3234 3.33193C12.2809 3.28918 12.2385 3.24596 12.1948 3.20437C12.1569 3.16816 12.1178 3.13429 12.079 3.09807C12.0347 3.05789 11.9906 3.01771 11.9454 2.97893C11.9054 2.94482 11.8647 2.91188 11.8241 2.8787C11.7784 2.84132 11.7327 2.80394 11.6856 2.76797C11.644 2.73596 11.6018 2.70489 11.5593 2.67452C11.512 2.63994 11.4645 2.60443 11.4163 2.57219C11.3731 2.54228 11.3295 2.51332 11.2856 2.48481C11.2367 2.45257 11.1875 2.42141 11.1378 2.39136C11.0921 2.36403 11.0485 2.3374 11.0035 2.311C10.9529 2.28156 10.9021 2.25282 10.8509 2.22479C10.8052 2.19988 10.7595 2.1755 10.7138 2.15167C10.6617 2.1248 10.6092 2.09887 10.5564 2.0734C10.5107 2.05121 10.4632 2.02901 10.4162 2.00799C10.3625 1.98462 10.3081 1.96126 10.2537 1.9379C10.2065 1.91828 10.1594 1.89865 10.1119 1.8802C10.0561 1.85847 10.0002 1.83814 9.94397 1.81828C9.89646 1.80123 9.84894 1.78418 9.80074 1.76829C9.74363 1.74937 9.68652 1.73208 9.62826 1.71502C9.58052 1.70054 9.53255 1.68605 9.48435 1.67274C9.46584 1.66783 9.44734 1.66386 9.42883 1.65895C10.105 2.33042 10.6068 3.16375 10.8888 4.0835C11.431 3.93725 11.9559 3.73067 12.4541 3.46743C12.4466 3.45902 12.4402 3.45085 12.4335 3.44384ZM12.762 3.81997C12.2133 4.12403 11.6314 4.36087 11.0284 4.52552C11.324 5.5767 11.4792 6.66396 11.4896 7.7577H14.2286C14.1789 6.31542 13.6631 4.93065 12.762 3.81997Z"></path>
      </mask>
      <path d="M7.83747 15C7.59207 15 7.34684 14.9865 7.10283 14.9596C6.87918 14.9362 6.65828 14.8979 6.44035 14.8514C6.39817 14.8424 6.35596 14.8329 6.31379 14.8229C5.02974 14.524 3.85726 13.8526 2.93695 12.8892C2.85137 12.7995 2.76759 12.7072 2.68566 12.6122C0.199632 9.69339 0.497979 5.26622 3.35206 2.72381C6.08446 0.289773 10.1974 0.451734 12.7387 3.0934C12.8245 3.18311 12.9082 3.27548 12.99 3.37048C14.0872 4.64823 14.6918 6.29086 14.6908 7.99132C14.6908 11.8621 11.6225 15 7.83747 15ZM3.24146 12.5388C3.27756 12.5771 3.31502 12.6138 3.3518 12.6509C3.39429 12.6937 3.43655 12.7367 3.47996 12.778C3.51811 12.8145 3.5574 12.8495 3.59646 12.885C3.64055 12.925 3.68441 12.9649 3.72964 13.0035C3.76939 13.0378 3.81028 13.0708 3.85095 13.1039C3.89664 13.1413 3.94232 13.1787 3.98938 13.2147C4.03096 13.2467 4.07322 13.2778 4.11571 13.3081C4.163 13.3427 4.21052 13.3782 4.25872 13.4105C4.30189 13.4404 4.34553 13.4693 4.38939 13.4981C4.43827 13.5301 4.48739 13.5616 4.53696 13.5915C4.58159 13.6188 4.62651 13.6456 4.67174 13.6719C4.72231 13.7013 4.77308 13.7301 4.82411 13.7581C4.8698 13.783 4.91549 13.8074 4.96118 13.8312C5.01326 13.8581 5.06581 13.884 5.11858 13.9095C5.16426 13.9317 5.21178 13.9539 5.25884 13.9749C5.31252 13.9983 5.36689 14.0216 5.42126 14.045C5.46855 14.0648 5.51561 14.0842 5.56335 14.1029C5.61864 14.1244 5.67461 14.1445 5.73057 14.1646C5.77832 14.1816 5.82606 14.1987 5.87449 14.2148C5.93138 14.2335 5.98871 14.2508 6.04628 14.2679C6.09448 14.2821 6.14223 14.2968 6.19066 14.3101C6.20916 14.315 6.22766 14.319 6.24617 14.3239C5.56998 13.6525 5.06818 12.8191 4.78619 11.8994C4.24398 12.0456 3.71908 12.2522 3.2209 12.5154C3.22844 12.5236 3.23484 12.5318 3.24146 12.5388ZM2.91296 12.1627C3.46171 11.8586 4.04361 11.6218 4.64661 11.4571C4.35101 10.4059 4.19584 9.31868 4.18539 8.22495H1.44636C1.49613 9.66725 2.01187 11.052 2.91296 12.1627ZM2.91296 3.81997C2.01193 4.93068 1.49619 6.31542 1.44636 7.7577H4.18539C4.19584 6.66396 4.35098 5.5767 4.64661 4.52552C4.04364 4.36081 3.46174 4.124 2.91296 3.81997ZM6.18929 1.67157C6.14314 1.68349 6.0954 1.6989 6.04788 1.71315C5.99008 1.73044 5.93206 1.74773 5.87495 1.76665C5.82675 1.78254 5.77923 1.79959 5.73172 1.81665C5.67552 1.83651 5.61932 1.85683 5.56381 1.87856C5.51629 1.89702 5.46946 1.91641 5.4224 1.93603C5.36781 1.95939 5.31321 1.98276 5.25907 2.00612C5.21247 2.02714 5.16609 2.04879 5.11995 2.07107C5.06672 2.09677 5.01372 2.12293 4.96004 2.15003C4.91435 2.17339 4.86866 2.19676 4.82297 2.22222C4.77134 2.25049 4.72017 2.27946 4.669 2.30936C4.62331 2.33529 4.57991 2.36193 4.53582 2.38903C4.48556 2.41987 4.43622 2.45164 4.38687 2.48411C4.34347 2.51238 4.30007 2.54112 4.25735 2.57055C4.20869 2.60419 4.16049 2.63924 4.11274 2.67428C4.07094 2.70489 4.02913 2.73549 3.98801 2.76773C3.94072 2.80418 3.89435 2.84179 3.84821 2.87964C3.80777 2.91258 3.76757 2.94528 3.72804 2.97916C3.68236 3.01794 3.63827 3.05836 3.59395 3.09854C3.55511 3.13382 3.51605 3.16863 3.47813 3.20461C3.4345 3.24619 3.39223 3.28941 3.34974 3.33217C3.31296 3.36931 3.2755 3.40599 3.23941 3.44407C3.23278 3.45131 3.22638 3.45879 3.21976 3.4658C3.71791 3.72915 4.24281 3.93582 4.78505 4.0821C5.06709 3.16238 5.56887 2.32907 6.24503 1.65755C6.22652 1.66246 6.20779 1.66643 6.18929 1.67157ZM7.60906 1.46832C6.63155 1.61036 5.77466 2.65372 5.23554 4.19447C6.01499 4.37296 6.81039 4.46872 7.60906 4.48019V1.46832ZM7.60906 4.94744C6.76182 4.93605 5.91815 4.83314 5.09208 4.64046C4.80524 5.65401 4.65392 6.70263 4.64227 7.7577H7.60906V4.94744ZM7.60906 8.22495H4.64227C4.65389 9.28002 4.80521 10.3286 5.09208 11.3422C5.91815 11.1495 6.76185 11.0466 7.60906 11.0352V8.22495ZM7.60906 11.5025C6.81037 11.5138 6.01499 11.6096 5.23554 11.7882C5.77466 13.3289 6.63155 14.3723 7.60906 14.5143V11.5025ZM12.762 12.1627C13.6631 11.052 14.1788 9.66722 14.2286 8.22495H11.4896C11.4792 9.31868 11.324 10.4059 11.0284 11.4571C11.6314 11.6219 12.2133 11.8587 12.762 12.1627ZM9.48389 14.3113C9.53186 14.2992 9.57961 14.2837 9.62712 14.2695C9.68492 14.2522 9.74294 14.2349 9.80005 14.216C9.84826 14.2001 9.89577 14.183 9.94329 14.166C9.99948 14.1461 10.0557 14.1258 10.1112 14.1041C10.1587 14.0856 10.2055 14.0662 10.2526 14.0466C10.3072 14.0232 10.3618 13.9999 10.4159 13.9765C10.4625 13.9555 10.5089 13.9339 10.5551 13.9116C10.6083 13.8859 10.6613 13.8597 10.715 13.8326C10.7607 13.8092 10.8063 13.7859 10.852 13.7604C10.9037 13.7322 10.9548 13.7032 11.006 13.6733C11.0517 13.6473 11.0951 13.6207 11.1392 13.5936C11.1894 13.5628 11.2388 13.531 11.2881 13.4985C11.3315 13.4703 11.3749 13.4415 11.4177 13.4121C11.4663 13.3784 11.5143 13.3436 11.562 13.3086C11.6041 13.278 11.6459 13.2472 11.6872 13.2151C11.7343 13.1789 11.7804 13.1413 11.8268 13.1035C11.867 13.0708 11.9074 13.0381 11.947 13.0039C11.9926 12.9652 12.0367 12.9248 12.0811 12.8846C12.1199 12.8493 12.159 12.8145 12.1969 12.7785C12.2405 12.7369 12.2828 12.6937 12.3253 12.6509C12.362 12.6138 12.3995 12.5771 12.4356 12.539C12.4422 12.5318 12.4486 12.5243 12.4552 12.5173C11.9571 12.254 11.4322 12.0473 10.89 11.901C10.6074 12.8208 10.1049 13.6541 9.42815 14.3253C9.44665 14.3204 9.46538 14.3164 9.48389 14.3113ZM8.06594 14.5143C9.04345 14.3723 9.90034 13.3289 10.4395 11.7882C9.66002 11.6097 8.86461 11.5139 8.06594 11.5025V14.5143ZM8.06594 11.0352C8.91318 11.0466 9.75685 11.1495 10.5829 11.3422C10.8698 10.3286 11.0211 9.28002 11.0327 8.22495H8.06594V11.0352ZM8.06594 7.7577H11.0327C11.0211 6.70263 10.8698 5.65401 10.5829 4.64046C9.75685 4.83311 8.91318 4.93602 8.06594 4.94744V7.7577ZM8.06594 1.46832V4.48019C8.86464 4.4688 9.66002 4.37305 10.4395 4.19447C9.90034 2.65372 9.04345 1.61036 8.06594 1.46832ZM12.4335 3.44384C12.3974 3.40576 12.3602 3.36908 12.3234 3.33193C12.2809 3.28918 12.2385 3.24596 12.1948 3.20437C12.1569 3.16816 12.1178 3.13429 12.079 3.09807C12.0347 3.05789 11.9906 3.01771 11.9454 2.97893C11.9054 2.94482 11.8647 2.91188 11.8241 2.8787C11.7784 2.84132 11.7327 2.80394 11.6856 2.76797C11.644 2.73596 11.6018 2.70489 11.5593 2.67452C11.512 2.63994 11.4645 2.60443 11.4163 2.57219C11.3731 2.54228 11.3295 2.51332 11.2856 2.48481C11.2367 2.45257 11.1875 2.42141 11.1378 2.39136C11.0921 2.36403 11.0485 2.3374 11.0035 2.311C10.9529 2.28156 10.9021 2.25282 10.8509 2.22479C10.8052 2.19988 10.7595 2.1755 10.7138 2.15167C10.6617 2.1248 10.6092 2.09887 10.5564 2.0734C10.5107 2.05121 10.4632 2.02901 10.4162 2.00799C10.3625 1.98462 10.3081 1.96126 10.2537 1.9379C10.2065 1.91828 10.1594 1.89865 10.1119 1.8802C10.0561 1.85847 10.0002 1.83814 9.94397 1.81828C9.89646 1.80123 9.84894 1.78418 9.80074 1.76829C9.74363 1.74937 9.68652 1.73208 9.62826 1.71502C9.58052 1.70054 9.53255 1.68605 9.48435 1.67274C9.46584 1.66783 9.44734 1.66386 9.42883 1.65895C10.105 2.33042 10.6068 3.16375 10.8888 4.0835C11.431 3.93725 11.9559 3.73067 12.4541 3.46743C12.4466 3.45902 12.4402 3.45085 12.4335 3.44384ZM12.762 3.81997C12.2133 4.12403 11.6314 4.36087 11.0284 4.52552C11.324 5.5767 11.4792 6.66396 11.4896 7.7577H14.2286C14.1789 6.31542 13.6631 4.93065 12.762 3.81997Z" fill="#15191C"></path>
      <path d="M7.83747 15C7.59207 15 7.34684 14.9865 7.10283 14.9596C6.87918 14.9362 6.65828 14.8979 6.44035 14.8514C6.39817 14.8424 6.35596 14.8329 6.31379 14.8229C5.02974 14.524 3.85726 13.8526 2.93695 12.8892C2.85137 12.7995 2.76759 12.7072 2.68566 12.6122C0.199632 9.69339 0.497979 5.26622 3.35206 2.72381C6.08446 0.289773 10.1974 0.451734 12.7387 3.0934C12.8245 3.18311 12.9082 3.27548 12.99 3.37048C14.0872 4.64823 14.6918 6.29086 14.6908 7.99132C14.6908 11.8621 11.6225 15 7.83747 15ZM3.24146 12.5388C3.27756 12.5771 3.31502 12.6138 3.3518 12.6509C3.39429 12.6937 3.43655 12.7367 3.47996 12.778C3.51811 12.8145 3.5574 12.8495 3.59646 12.885C3.64055 12.925 3.68441 12.9649 3.72964 13.0035C3.76939 13.0378 3.81028 13.0708 3.85095 13.1039C3.89664 13.1413 3.94232 13.1787 3.98938 13.2147C4.03096 13.2467 4.07322 13.2778 4.11571 13.3081C4.163 13.3427 4.21052 13.3782 4.25872 13.4105C4.30189 13.4404 4.34553 13.4693 4.38939 13.4981C4.43827 13.5301 4.48739 13.5616 4.53696 13.5915C4.58159 13.6188 4.62651 13.6456 4.67174 13.6719C4.72231 13.7013 4.77308 13.7301 4.82411 13.7581C4.8698 13.783 4.91549 13.8074 4.96118 13.8312C5.01326 13.8581 5.06581 13.884 5.11858 13.9095C5.16426 13.9317 5.21178 13.9539 5.25884 13.9749C5.31252 13.9983 5.36689 14.0216 5.42126 14.045C5.46855 14.0648 5.51561 14.0842 5.56335 14.1029C5.61864 14.1244 5.67461 14.1445 5.73057 14.1646C5.77832 14.1816 5.82606 14.1987 5.87449 14.2148C5.93138 14.2335 5.98871 14.2508 6.04628 14.2679C6.09448 14.2821 6.14223 14.2968 6.19066 14.3101C6.20916 14.315 6.22766 14.319 6.24617 14.3239C5.56998 13.6525 5.06818 12.8191 4.78619 11.8994C4.24398 12.0456 3.71908 12.2522 3.2209 12.5154C3.22844 12.5236 3.23484 12.5318 3.24146 12.5388ZM2.91296 12.1627C3.46171 11.8586 4.04361 11.6218 4.64661 11.4571C4.35101 10.4059 4.19584 9.31868 4.18539 8.22495H1.44636C1.49613 9.66725 2.01187 11.052 2.91296 12.1627ZM2.91296 3.81997C2.01193 4.93068 1.49619 6.31542 1.44636 7.7577H4.18539C4.19584 6.66396 4.35098 5.5767 4.64661 4.52552C4.04364 4.36081 3.46174 4.124 2.91296 3.81997ZM6.18929 1.67157C6.14314 1.68349 6.0954 1.6989 6.04788 1.71315C5.99008 1.73044 5.93206 1.74773 5.87495 1.76665C5.82675 1.78254 5.77923 1.79959 5.73172 1.81665C5.67552 1.83651 5.61932 1.85683 5.56381 1.87856C5.51629 1.89702 5.46946 1.91641 5.4224 1.93603C5.36781 1.95939 5.31321 1.98276 5.25907 2.00612C5.21247 2.02714 5.16609 2.04879 5.11995 2.07107C5.06672 2.09677 5.01372 2.12293 4.96004 2.15003C4.91435 2.17339 4.86866 2.19676 4.82297 2.22222C4.77134 2.25049 4.72017 2.27946 4.669 2.30936C4.62331 2.33529 4.57991 2.36193 4.53582 2.38903C4.48556 2.41987 4.43622 2.45164 4.38687 2.48411C4.34347 2.51238 4.30007 2.54112 4.25735 2.57055C4.20869 2.60419 4.16049 2.63924 4.11274 2.67428C4.07094 2.70489 4.02913 2.73549 3.98801 2.76773C3.94072 2.80418 3.89435 2.84179 3.84821 2.87964C3.80777 2.91258 3.76757 2.94528 3.72804 2.97916C3.68236 3.01794 3.63827 3.05836 3.59395 3.09854C3.55511 3.13382 3.51605 3.16863 3.47813 3.20461C3.4345 3.24619 3.39223 3.28941 3.34974 3.33217C3.31296 3.36931 3.2755 3.40599 3.23941 3.44407C3.23278 3.45131 3.22638 3.45879 3.21976 3.4658C3.71791 3.72915 4.24281 3.93582 4.78505 4.0821C5.06709 3.16238 5.56887 2.32907 6.24503 1.65755C6.22652 1.66246 6.20779 1.66643 6.18929 1.67157ZM7.60906 1.46832C6.63155 1.61036 5.77466 2.65372 5.23554 4.19447C6.01499 4.37296 6.81039 4.46872 7.60906 4.48019V1.46832ZM7.60906 4.94744C6.76182 4.93605 5.91815 4.83314 5.09208 4.64046C4.80524 5.65401 4.65392 6.70263 4.64227 7.7577H7.60906V4.94744ZM7.60906 8.22495H4.64227C4.65389 9.28002 4.80521 10.3286 5.09208 11.3422C5.91815 11.1495 6.76185 11.0466 7.60906 11.0352V8.22495ZM7.60906 11.5025C6.81037 11.5138 6.01499 11.6096 5.23554 11.7882C5.77466 13.3289 6.63155 14.3723 7.60906 14.5143V11.5025ZM12.762 12.1627C13.6631 11.052 14.1788 9.66722 14.2286 8.22495H11.4896C11.4792 9.31868 11.324 10.4059 11.0284 11.4571C11.6314 11.6219 12.2133 11.8587 12.762 12.1627ZM9.48389 14.3113C9.53186 14.2992 9.57961 14.2837 9.62712 14.2695C9.68492 14.2522 9.74294 14.2349 9.80005 14.216C9.84826 14.2001 9.89577 14.183 9.94329 14.166C9.99948 14.1461 10.0557 14.1258 10.1112 14.1041C10.1587 14.0856 10.2055 14.0662 10.2526 14.0466C10.3072 14.0232 10.3618 13.9999 10.4159 13.9765C10.4625 13.9555 10.5089 13.9339 10.5551 13.9116C10.6083 13.8859 10.6613 13.8597 10.715 13.8326C10.7607 13.8092 10.8063 13.7859 10.852 13.7604C10.9037 13.7322 10.9548 13.7032 11.006 13.6733C11.0517 13.6473 11.0951 13.6207 11.1392 13.5936C11.1894 13.5628 11.2388 13.531 11.2881 13.4985C11.3315 13.4703 11.3749 13.4415 11.4177 13.4121C11.4663 13.3784 11.5143 13.3436 11.562 13.3086C11.6041 13.278 11.6459 13.2472 11.6872 13.2151C11.7343 13.1789 11.7804 13.1413 11.8268 13.1035C11.867 13.0708 11.9074 13.0381 11.947 13.0039C11.9926 12.9652 12.0367 12.9248 12.0811 12.8846C12.1199 12.8493 12.159 12.8145 12.1969 12.7785C12.2405 12.7369 12.2828 12.6937 12.3253 12.6509C12.362 12.6138 12.3995 12.5771 12.4356 12.539C12.4422 12.5318 12.4486 12.5243 12.4552 12.5173C11.9571 12.254 11.4322 12.0473 10.89 11.901C10.6074 12.8208 10.1049 13.6541 9.42815 14.3253C9.44665 14.3204 9.46538 14.3164 9.48389 14.3113ZM8.06594 14.5143C9.04345 14.3723 9.90034 13.3289 10.4395 11.7882C9.66002 11.6097 8.86461 11.5139 8.06594 11.5025V14.5143ZM8.06594 11.0352C8.91318 11.0466 9.75685 11.1495 10.5829 11.3422C10.8698 10.3286 11.0211 9.28002 11.0327 8.22495H8.06594V11.0352ZM8.06594 7.7577H11.0327C11.0211 6.70263 10.8698 5.65401 10.5829 4.64046C9.75685 4.83311 8.91318 4.93602 8.06594 4.94744V7.7577ZM8.06594 1.46832V4.48019C8.86464 4.4688 9.66002 4.37305 10.4395 4.19447C9.90034 2.65372 9.04345 1.61036 8.06594 1.46832ZM12.4335 3.44384C12.3974 3.40576 12.3602 3.36908 12.3234 3.33193C12.2809 3.28918 12.2385 3.24596 12.1948 3.20437C12.1569 3.16816 12.1178 3.13429 12.079 3.09807C12.0347 3.05789 11.9906 3.01771 11.9454 2.97893C11.9054 2.94482 11.8647 2.91188 11.8241 2.8787C11.7784 2.84132 11.7327 2.80394 11.6856 2.76797C11.644 2.73596 11.6018 2.70489 11.5593 2.67452C11.512 2.63994 11.4645 2.60443 11.4163 2.57219C11.3731 2.54228 11.3295 2.51332 11.2856 2.48481C11.2367 2.45257 11.1875 2.42141 11.1378 2.39136C11.0921 2.36403 11.0485 2.3374 11.0035 2.311C10.9529 2.28156 10.9021 2.25282 10.8509 2.22479C10.8052 2.19988 10.7595 2.1755 10.7138 2.15167C10.6617 2.1248 10.6092 2.09887 10.5564 2.0734C10.5107 2.05121 10.4632 2.02901 10.4162 2.00799C10.3625 1.98462 10.3081 1.96126 10.2537 1.9379C10.2065 1.91828 10.1594 1.89865 10.1119 1.8802C10.0561 1.85847 10.0002 1.83814 9.94397 1.81828C9.89646 1.80123 9.84894 1.78418 9.80074 1.76829C9.74363 1.74937 9.68652 1.73208 9.62826 1.71502C9.58052 1.70054 9.53255 1.68605 9.48435 1.67274C9.46584 1.66783 9.44734 1.66386 9.42883 1.65895C10.105 2.33042 10.6068 3.16375 10.8888 4.0835C11.431 3.93725 11.9559 3.73067 12.4541 3.46743C12.4466 3.45902 12.4402 3.45085 12.4335 3.44384ZM12.762 3.81997C12.2133 4.12403 11.6314 4.36087 11.0284 4.52552C11.324 5.5767 11.4792 6.66396 11.4896 7.7577H14.2286C14.1789 6.31542 13.6631 4.93065 12.762 3.81997Z" stroke="#15191C" stroke-width="0.5" mask="url(#path-1-outside-1_1_3303)"></path>
    </g>
  </g>
</svg>
