<?xml version="1.0" encoding="UTF-8"?>
<svg xmlns="http://www.w3.org/2000/svg" width="36" height="36" viewBox="0 0 36 36" fill="none">
  <g clip-path="url(#clip0_1_3261)">
    <path fill-rule="evenodd" clip-rule="evenodd" d="M36 18C36 27.9411 27.9411 36 18 36C8.05888 36 0 27.9411 0 18C0 8.05888 8.05888 0 18 0C27.9411 0 36 8.05888 36 18ZM24.9916 13.7958C25.7276 13.7079 26.4276 13.5124 27.0794 13.2232C26.5906 13.954 25.9757 14.592 25.2633 15.1073C25.2709 15.2633 25.2744 15.4198 25.2744 15.5775C25.2744 20.3808 21.6179 25.9195 14.9323 25.9195C12.8795 25.9195 10.9692 25.3173 9.36037 24.2857C9.64488 24.32 9.93469 24.3375 10.2279 24.3375C11.9304 24.3375 13.498 23.7561 14.742 22.7809C13.1519 22.7512 11.8094 21.7004 11.3469 20.2568C11.5691 20.2986 11.7966 20.3208 12.0311 20.3208C12.3628 20.3208 12.6834 20.2771 12.9889 20.1934C11.3259 19.8594 10.0731 18.3907 10.0731 16.6294V16.5835C10.5779 16.8642 11.1425 17.0201 11.7198 17.0379C10.7446 16.3862 10.1028 15.2737 10.1028 14.0128C10.1028 13.3466 10.282 12.7222 10.5951 12.1852C12.3878 14.3841 15.0661 15.8312 18.0871 15.983C18.0255 15.7165 17.9935 15.4389 17.9935 15.1544C17.9935 13.1464 19.621 11.5195 21.6278 11.5195C22.6734 11.5195 23.6184 11.9606 24.2811 12.667C25.0955 12.507 25.8764 12.2087 26.5899 11.7849C26.3182 12.6332 25.7428 13.346 24.9916 13.7958Z" fill="#15191C"></path>
  </g>
  <defs>
    <clipPath id="clip0_1_3261">
      <rect width="36" height="36" fill="white"></rect>
    </clipPath>
  </defs>
</svg>
