<svg width="36" height="36" viewBox="0 0 36 36" fill="none" xmlns="http://www.w3.org/2000/svg">
<g clip-path="url(#clip0_1_3265)">
<path d="M25.3087 12.4706C25.1526 12.0661 24.9134 11.6988 24.6066 11.3923C24.2998 11.0858 23.9322 10.847 23.5275 10.6913C22.9703 10.4849 22.3817 10.3758 21.7875 10.3687C20.7994 10.3237 20.5031 10.3125 18 10.3125C15.4969 10.3125 15.2006 10.3237 14.2125 10.3687C13.6177 10.3756 13.0285 10.4846 12.4706 10.6913C12.0661 10.8474 11.6988 11.0866 11.3923 11.3934C11.0858 11.7002 10.847 12.0678 10.6913 12.4725C10.4849 13.0297 10.3758 13.6183 10.3687 14.2125C10.3237 15.2006 10.3125 15.4969 10.3125 18C10.3125 20.5031 10.3237 20.7994 10.3687 21.7875C10.3756 22.3823 10.4846 22.9715 10.6913 23.5294C10.8474 23.9339 11.0866 24.3012 11.3934 24.6077C11.7002 24.9142 12.0678 25.153 12.4725 25.3087C13.0297 25.5151 13.6183 25.6242 14.2125 25.6312C15.2006 25.6762 15.4969 25.6875 18 25.6875C20.5031 25.6875 20.7994 25.6762 21.7875 25.6312C22.3823 25.6244 22.9715 25.5153 23.5294 25.3087C23.9339 25.1526 24.3012 24.9134 24.6077 24.6066C24.9142 24.2998 25.153 23.9322 25.3087 23.5275C25.5151 22.9703 25.6242 22.3817 25.6312 21.7875C25.6762 20.7994 25.6875 20.5031 25.6875 18C25.6875 15.4969 25.6762 15.2006 25.6312 14.2125C25.6244 13.6177 25.5153 13.0285 25.3087 12.4706ZM18 22.815C17.0477 22.815 16.1168 22.5326 15.3249 22.0035C14.5331 21.4744 13.916 20.7224 13.5515 19.8426C13.1871 18.9628 13.0917 17.9947 13.2775 17.0606C13.4633 16.1266 13.9219 15.2687 14.5953 14.5953C15.2687 13.9219 16.1266 13.4633 17.0606 13.2775C17.9947 13.0917 18.9628 13.1871 19.8426 13.5515C20.7224 13.916 21.4744 14.5331 22.0035 15.3249C22.5326 16.1168 22.815 17.0477 22.815 18C22.815 19.277 22.3077 20.5017 21.4047 21.4047C20.5017 22.3077 19.277 22.815 18 22.815V22.815ZM23.0044 14.1206C22.7819 14.1206 22.5644 14.0546 22.3794 13.931C22.1944 13.8074 22.0502 13.6317 21.965 13.4261C21.8799 13.2206 21.8576 12.9944 21.901 12.7761C21.9444 12.5579 22.0515 12.3575 22.2089 12.2001C22.3662 12.0428 22.5667 11.9356 22.7849 11.8922C23.0031 11.8488 23.2293 11.8711 23.4349 11.9563C23.6405 12.0414 23.8162 12.1856 23.9398 12.3706C24.0634 12.5556 24.1294 12.7731 24.1294 12.9956C24.1294 13.294 24.0108 13.5801 23.7999 13.7911C23.5889 14.0021 23.3027 14.1206 23.0044 14.1206V14.1206Z" fill="#15191C"/>
<path d="M17.9996 21.1263C19.7259 21.1263 21.1253 19.7269 21.1253 18.0006C21.1253 16.2744 19.7259 14.875 17.9996 14.875C16.2734 14.875 14.874 16.2744 14.874 18.0006C14.874 19.7269 16.2734 21.1263 17.9996 21.1263Z" fill="#15191C"/>
<path d="M18 0C14.4399 0 10.9598 1.05568 7.99974 3.03355C5.03966 5.01141 2.73255 7.82263 1.37018 11.1117C0.00779908 14.4008 -0.348661 18.02 0.345873 21.5116C1.04041 25.0033 2.75474 28.2106 5.27209 30.7279C7.78943 33.2453 10.9967 34.9596 14.4884 35.6541C17.98 36.3487 21.5992 35.9922 24.8883 34.6298C28.1774 33.2675 30.9886 30.9603 32.9665 28.0003C34.9443 25.0402 36 21.5601 36 18C36 15.6362 35.5344 13.2956 34.6298 11.1117C33.7253 8.92784 32.3994 6.94353 30.7279 5.27208C29.0565 3.60062 27.0722 2.27475 24.8883 1.37017C22.7044 0.465584 20.3638 0 18 0V0ZM27.3188 21.8663C27.3027 22.6436 27.155 23.4126 26.8819 24.1406C26.6411 24.7633 26.2729 25.3287 25.8008 25.8008C25.3288 26.2729 24.7633 26.6411 24.1406 26.8819C23.4126 27.1549 22.6436 27.3027 21.8663 27.3188C20.865 27.3638 20.5463 27.375 18 27.375C15.4538 27.375 15.135 27.3638 14.1338 27.3188C13.3564 27.3027 12.5874 27.1549 11.8594 26.8819C11.2367 26.6411 10.6713 26.2729 10.1992 25.8008C9.72715 25.3287 9.35893 24.7633 9.11813 24.1406C8.84506 23.4126 8.69734 22.6436 8.68126 21.8663C8.63626 20.865 8.62501 20.5463 8.62501 18C8.62501 15.4538 8.63626 15.135 8.68126 14.1338C8.69734 13.3564 8.84506 12.5874 9.11813 11.8594C9.35893 11.2367 9.72715 10.6713 10.1992 10.1992C10.6713 9.72715 11.2367 9.35892 11.8594 9.11812C12.5874 8.84505 13.3564 8.69734 14.1338 8.68125C15.135 8.63625 15.4538 8.625 18 8.625C20.5463 8.625 20.865 8.63625 21.8663 8.68125C22.6436 8.69734 23.4126 8.84505 24.1406 9.11812C24.7633 9.35892 25.3288 9.72715 25.8008 10.1992C26.2729 10.6713 26.6411 11.2367 26.8819 11.8594C27.155 12.5874 27.3027 13.3564 27.3188 14.1338C27.3638 15.135 27.375 15.4538 27.375 18C27.375 20.5463 27.3638 20.865 27.3188 21.8663V21.8663Z" fill="#15191C"/>
</g>
<defs>
<clipPath id="clip0_1_3265">
<rect width="36" height="36" fill="white"/>
</clipPath>
</defs>
</svg>
