<svg width="36" height="36" viewBox="0 0 36 36" fill="none" xmlns="http://www.w3.org/2000/svg">
<path fill-rule="evenodd" clip-rule="evenodd" d="M18 36C27.9411 36 36 27.9411 36 18C36 8.05887 27.9411 0 18 0C8.05887 0 0 8.05887 0 18C0 27.9411 8.05887 36 18 36ZM25.3264 11.6612C26.1295 11.8775 26.7628 12.5107 26.9789 13.314C27.3806 14.7811 27.3651 17.8392 27.3651 17.8392C27.3651 17.8392 27.3651 20.8817 26.9791 22.349C26.7628 23.1521 26.1296 23.7853 25.3264 24.0015C23.8591 24.3877 17.9902 24.3877 17.9902 24.3877C17.9902 24.3877 12.1366 24.3877 10.654 23.9862C9.85074 23.7699 9.21765 23.1367 9.00136 22.3335C8.61523 20.8817 8.61523 17.8238 8.61523 17.8238C8.61523 17.8238 8.61523 14.7811 9.00136 13.314C9.21742 12.5108 9.86619 11.8621 10.6539 11.646C12.1211 11.2598 17.99 11.2598 17.99 11.2598C17.99 11.2598 23.8591 11.2598 25.3264 11.6612ZM21.0019 17.8238L16.1214 15.0129V20.6347L21.0019 17.8238Z" fill="#15191C"/>
</svg>
